<svg xmlns="http://www.w3.org/2000/svg" width="16" height="16" viewBox="0 0 16 16">
    <g fill="none" fill-rule="evenodd" opacity=".5">
        <path d="M0 0L16 0 16 16 0 16z"/>
        <path fill="#FFF" fill-rule="nonzero" d="M.667 14h2.666V6H.667v8zm14.666-7.333c0-.734-.6-1.334-1.333-1.334H9.793l.634-3.046.02-.214c0-.273-.114-.526-.294-.706l-.706-.7L5.06 5.06c-.247.24-.393.573-.393.94v6.667C4.667 13.4 5.267 14 6 14h6c.553 0 1.027-.333 1.227-.813l2.013-4.7c.06-.154.093-.314.093-.487V6.667z"/>
    </g>
</svg>
